<svg xmlns="http://www.w3.org/2000/svg" viewBox="0 0 31 24.64"><defs><style>.cls-1{fill:#fff;}</style></defs><g id="Capa_2" data-name="Capa 2"><g id="Capa_1-2" data-name="Capa 1"><path class="cls-1" d="M0,12.32a3.34,3.34,0,0,1,.38-.45L13.84.67a2.39,2.39,0,0,1,3.31,0l4.23,3.52a3.08,3.08,0,0,0,.28.22V.85c0-.58.2-.79.77-.79h3.36c.57,0,.79.22.79.79q0,3.69,0,7.37a.56.56,0,0,0,.23.48q1.89,1.56,3.77,3.13a5,5,0,0,1,.43.49v.36l-1.19,1.44c-.39.48-.7.5-1.18.1L15.8,3.54l-.3-.24L14.06,4.49,2.34,14.24a.68.68,0,0,1-1.13-.09L0,12.68Z"/><path class="cls-1" d="M15.51,5,18.2,7.2l8.15,6.71a.54.54,0,0,1,.23.48v8.88a1.25,1.25,0,0,1-1.32,1.37H18.2l-.23,0V17.29H13v7.35H5.85A1.28,1.28,0,0,1,4.42,23.2q0-4.39,0-8.79A.62.62,0,0,1,4.6,14Q10,9.52,15.38,5.08Z"/></g></g></svg>